<svg width="541.944" height="86.523" viewBox="0 0 541.944 86.523" xmlns="http://www.w3.org/2000/svg"><g id="svgGroup" stroke-linecap="round" fill-rule="evenodd" font-size="9pt" stroke="#000000" stroke-width="0.5mm" fill="#FFF" style="stroke:#000000;stroke-width:0.5mm;fill:#FFF"><path d="M 49.561 70.02 L 0.586 70.02 L 0.586 57.324 L 49.561 57.324 A 10.022 10.022 0 0 0 51.885 57.07 A 6.612 6.612 0 0 0 55.249 55.176 A 7.233 7.233 0 0 0 57.047 51.676 A 10.609 10.609 0 0 0 57.276 49.414 A 10.036 10.036 0 0 0 57.086 47.43 A 8.42 8.42 0 0 0 56.739 46.191 A 7.529 7.529 0 0 0 55.509 44.006 A 7.097 7.097 0 0 0 55.201 43.652 A 6.753 6.753 0 0 0 52.849 42.029 A 7.776 7.776 0 0 0 52.759 41.992 A 7.975 7.975 0 0 0 50.538 41.454 A 9.793 9.793 0 0 0 49.561 41.406 L 20.362 41.406 Q 17.285 41.406 13.721 40.308 A 19.92 19.92 0 0 1 7.105 36.768 Q 4.053 34.326 2.027 30.371 Q 0 26.416 0 20.703 Q 0 14.99 2.027 11.06 A 21.331 21.331 0 0 1 4.712 7.004 A 17.882 17.882 0 0 1 7.105 4.663 Q 10.157 2.197 13.721 1.099 A 26.288 26.288 0 0 1 17.137 0.279 A 19.618 19.618 0 0 1 20.362 0 L 63.575 0 L 63.575 12.695 L 20.362 12.695 A 9.552 9.552 0 0 0 18.017 12.967 A 6.561 6.561 0 0 0 14.722 14.893 A 7.469 7.469 0 0 0 12.904 18.534 A 10.774 10.774 0 0 0 12.696 20.703 Q 12.696 24.181 14.523 26.271 A 6.773 6.773 0 0 0 14.722 26.489 A 6.649 6.649 0 0 0 18.161 28.385 A 10.002 10.002 0 0 0 20.362 28.613 L 49.561 28.613 L 49.659 28.613 A 20.758 20.758 0 0 1 52.317 28.856 A 25.54 25.54 0 0 1 54.004 29.175 A 21.546 21.546 0 0 1 58.144 30.565 A 24.067 24.067 0 0 1 58.57 30.762 A 22.029 22.029 0 0 1 62.891 33.472 A 18.174 18.174 0 0 1 66.328 37.118 A 20.394 20.394 0 0 1 66.529 37.402 A 18.387 18.387 0 0 1 68.469 41.054 A 22.017 22.017 0 0 1 69.043 42.676 A 20.024 20.024 0 0 1 69.793 46.274 A 26.642 26.642 0 0 1 69.971 49.414 A 25.618 25.618 0 0 1 69.733 52.985 A 19.58 19.58 0 0 1 69.019 56.177 A 21.869 21.869 0 0 1 67.673 59.493 A 18.125 18.125 0 0 1 66.504 61.475 Q 64.942 63.77 62.842 65.381 A 22.82 22.82 0 0 1 59.195 67.683 A 20.76 20.76 0 0 1 58.496 68.018 A 21.772 21.772 0 0 1 53.931 69.531 A 23.403 23.403 0 0 1 51.407 69.926 A 18.829 18.829 0 0 1 49.561 70.02 Z M 137.305 35.01 L 137.305 52.197 A 22.245 22.245 0 0 1 137.097 55.304 A 17.001 17.001 0 0 1 136.475 58.081 A 18.619 18.619 0 0 1 135.3 60.959 A 15.321 15.321 0 0 1 134.278 62.671 A 14.948 14.948 0 0 1 131.16 65.996 A 14.204 14.204 0 0 1 131.104 66.04 A 18.521 18.521 0 0 1 127.32 68.311 A 19.666 19.666 0 0 1 123.59 69.551 A 18.268 18.268 0 0 1 123.34 69.604 Q 121.338 70.02 119.532 70.02 L 96.631 70.02 L 96.631 57.324 L 119.532 57.324 A 7.78 7.78 0 0 0 120.978 57.199 Q 122.462 56.917 123.34 56.006 A 4.243 4.243 0 0 0 124.331 54.274 Q 124.531 53.62 124.588 52.834 A 8.905 8.905 0 0 0 124.61 52.197 L 124.61 35.107 Q 124.61 33.412 124.075 32.282 A 3.737 3.737 0 0 0 123.316 31.201 A 4.129 4.129 0 0 0 121.633 30.22 Q 120.718 29.932 119.532 29.932 L 96.729 29.932 A 8.245 8.245 0 0 0 95.238 30.058 Q 93.73 30.335 92.823 31.226 Q 91.654 32.372 91.521 34.459 A 8.671 8.671 0 0 0 91.504 35.01 L 91.504 86.523 L 78.809 86.523 L 78.809 35.01 A 22.114 22.114 0 0 1 79.016 31.909 A 16.683 16.683 0 0 1 79.639 29.15 A 17.956 17.956 0 0 1 80.896 26.154 A 15.128 15.128 0 0 1 81.861 24.585 A 15.521 15.521 0 0 1 84.724 21.482 A 14.529 14.529 0 0 1 85.059 21.216 A 18.521 18.521 0 0 1 88.843 18.945 A 19.451 19.451 0 0 1 92.847 17.651 A 21.115 21.115 0 0 1 95.012 17.319 A 16.53 16.53 0 0 1 96.631 17.236 L 119.532 17.236 A 22.114 22.114 0 0 1 122.632 17.444 A 16.683 16.683 0 0 1 125.391 18.066 A 18.546 18.546 0 0 1 128.318 19.278 A 15.471 15.471 0 0 1 129.956 20.264 A 14.948 14.948 0 0 1 133.282 23.381 A 14.204 14.204 0 0 1 133.326 23.438 A 18.521 18.521 0 0 1 135.596 27.222 A 19.666 19.666 0 0 1 136.836 30.951 A 18.268 18.268 0 0 1 136.89 31.201 Q 137.305 33.203 137.305 35.01 Z M 202.637 34.717 L 202.637 52.539 A 17.285 17.285 0 0 1 202.352 55.592 A 23.113 23.113 0 0 1 201.709 58.228 A 16.999 16.999 0 0 1 198.706 63.892 A 15.856 15.856 0 0 1 195.079 67.198 A 19.604 19.604 0 0 1 193.286 68.262 Q 190.138 69.917 185.712 70.013 A 25.375 25.375 0 0 1 185.157 70.02 L 162.256 70.02 A 17.285 17.285 0 0 1 159.203 69.734 A 23.113 23.113 0 0 1 156.568 69.092 A 16.999 16.999 0 0 1 150.904 66.089 A 15.856 15.856 0 0 1 147.598 62.462 A 19.604 19.604 0 0 1 146.534 60.669 Q 144.879 57.52 144.782 53.095 A 25.375 25.375 0 0 1 144.776 52.539 A 17.294 17.294 0 0 1 145.038 49.614 A 23.362 23.362 0 0 1 145.703 46.826 Q 146.631 43.75 148.706 41.138 A 15.856 15.856 0 0 1 152.334 37.832 A 19.604 19.604 0 0 1 154.126 36.768 Q 157.275 35.113 161.7 35.016 A 25.375 25.375 0 0 1 162.256 35.01 L 185.157 35.01 L 185.157 47.119 L 162.256 47.119 A 6.766 6.766 0 0 0 160.615 47.307 A 4.567 4.567 0 0 0 158.252 48.706 A 5.543 5.543 0 0 0 156.861 52.028 A 7.291 7.291 0 0 0 156.836 52.637 A 6.086 6.086 0 0 0 157.048 54.285 A 4.442 4.442 0 0 0 158.472 56.519 A 5.797 5.797 0 0 0 162.354 57.91 L 185.157 57.91 A 6.867 6.867 0 0 0 186.797 57.726 A 4.581 4.581 0 0 0 189.16 56.348 A 5.422 5.422 0 0 0 190.542 53.155 A 7.197 7.197 0 0 0 190.576 52.441 L 190.576 34.717 A 6.509 6.509 0 0 0 190.36 32.993 A 4.755 4.755 0 0 0 189.038 30.762 Q 187.5 29.297 185.157 29.297 L 157.276 29.297 L 157.276 17.236 L 185.157 17.236 A 17.285 17.285 0 0 1 188.209 17.522 A 23.113 23.113 0 0 1 190.845 18.164 A 16.999 16.999 0 0 1 196.509 21.167 A 15.856 15.856 0 0 1 199.815 24.794 A 19.604 19.604 0 0 1 200.879 26.587 Q 202.534 29.736 202.631 34.161 A 25.375 25.375 0 0 1 202.637 34.717 Z M 314.014 52.197 L 291.114 52.197 L 291.114 40.137 L 314.014 40.137 A 6.766 6.766 0 0 0 315.655 39.949 A 4.567 4.567 0 0 0 318.018 38.55 A 5.543 5.543 0 0 0 319.409 35.228 A 7.291 7.291 0 0 0 319.434 34.619 A 6.298 6.298 0 0 0 319.229 32.968 A 4.55 4.55 0 0 0 317.847 30.713 A 5.537 5.537 0 0 0 314.119 29.298 A 7.051 7.051 0 0 0 314.014 29.297 L 291.114 29.297 A 6.766 6.766 0 0 0 289.473 29.484 A 4.567 4.567 0 0 0 287.11 30.884 A 5.543 5.543 0 0 0 285.719 34.205 A 7.291 7.291 0 0 0 285.694 34.814 L 285.694 52.539 A 6.514 6.514 0 0 0 285.894 54.202 A 4.554 4.554 0 0 0 287.281 56.494 A 5.543 5.543 0 0 0 290.602 57.885 A 7.291 7.291 0 0 0 291.211 57.91 L 314.014 57.91 L 314.014 70.02 L 291.114 70.02 A 17.285 17.285 0 0 1 288.061 69.734 A 23.113 23.113 0 0 1 285.425 69.092 A 16.999 16.999 0 0 1 279.761 66.089 A 15.856 15.856 0 0 1 276.455 62.462 A 19.604 19.604 0 0 1 275.391 60.669 Q 273.736 57.52 273.639 53.095 A 25.375 25.375 0 0 1 273.633 52.539 L 273.633 34.717 A 17.285 17.285 0 0 1 273.919 31.664 A 23.113 23.113 0 0 1 274.561 29.028 A 16.999 16.999 0 0 1 277.564 23.364 A 15.856 15.856 0 0 1 281.191 20.058 A 19.604 19.604 0 0 1 282.984 18.994 Q 286.132 17.339 290.558 17.242 A 25.375 25.375 0 0 1 291.114 17.236 L 314.014 17.236 A 17.285 17.285 0 0 1 317.067 17.522 A 23.113 23.113 0 0 1 319.702 18.164 A 16.999 16.999 0 0 1 325.367 21.167 A 15.856 15.856 0 0 1 328.672 24.794 A 19.604 19.604 0 0 1 329.737 26.587 Q 331.391 29.736 331.488 34.161 A 25.375 25.375 0 0 1 331.494 34.717 A 17.285 17.285 0 0 1 331.209 37.77 A 23.113 23.113 0 0 1 330.567 40.405 A 16.999 16.999 0 0 1 327.564 46.069 A 15.856 15.856 0 0 1 323.937 49.375 A 19.604 19.604 0 0 1 322.144 50.439 Q 318.995 52.094 314.57 52.191 A 25.375 25.375 0 0 1 314.014 52.197 Z M 524.463 52.197 L 501.563 52.197 L 501.563 40.137 L 524.463 40.137 A 6.766 6.766 0 0 0 526.104 39.949 A 4.567 4.567 0 0 0 528.467 38.55 A 5.543 5.543 0 0 0 529.858 35.228 A 7.291 7.291 0 0 0 529.883 34.619 A 6.298 6.298 0 0 0 529.678 32.968 A 4.55 4.55 0 0 0 528.296 30.713 A 5.537 5.537 0 0 0 524.568 29.298 A 7.051 7.051 0 0 0 524.463 29.297 L 501.563 29.297 A 6.766 6.766 0 0 0 499.922 29.484 A 4.567 4.567 0 0 0 497.559 30.884 A 5.543 5.543 0 0 0 496.168 34.205 A 7.291 7.291 0 0 0 496.143 34.814 L 496.143 52.539 A 6.514 6.514 0 0 0 496.343 54.202 A 4.554 4.554 0 0 0 497.73 56.494 A 5.543 5.543 0 0 0 501.051 57.885 A 7.291 7.291 0 0 0 501.66 57.91 L 524.463 57.91 L 524.463 70.02 L 501.563 70.02 A 17.285 17.285 0 0 1 498.51 69.734 A 23.113 23.113 0 0 1 495.874 69.092 A 16.999 16.999 0 0 1 490.21 66.089 A 15.856 15.856 0 0 1 486.904 62.462 A 19.604 19.604 0 0 1 485.84 60.669 Q 484.185 57.52 484.088 53.095 A 25.375 25.375 0 0 1 484.082 52.539 L 484.082 34.717 A 17.285 17.285 0 0 1 484.368 31.664 A 23.113 23.113 0 0 1 485.01 29.028 A 16.999 16.999 0 0 1 488.013 23.364 A 15.856 15.856 0 0 1 491.64 20.058 A 19.604 19.604 0 0 1 493.433 18.994 Q 496.582 17.339 501.007 17.242 A 25.375 25.375 0 0 1 501.563 17.236 L 524.463 17.236 A 17.285 17.285 0 0 1 527.516 17.522 A 23.113 23.113 0 0 1 530.152 18.164 A 16.999 16.999 0 0 1 535.816 21.167 A 15.856 15.856 0 0 1 539.122 24.794 A 19.604 19.604 0 0 1 540.186 26.587 Q 541.841 29.736 541.938 34.161 A 25.375 25.375 0 0 1 541.944 34.717 A 17.285 17.285 0 0 1 541.658 37.77 A 23.113 23.113 0 0 1 541.016 40.405 A 16.999 16.999 0 0 1 538.013 46.069 A 15.856 15.856 0 0 1 534.386 49.375 A 19.604 19.604 0 0 1 532.593 50.439 Q 529.444 52.094 525.019 52.191 A 25.375 25.375 0 0 1 524.463 52.197 Z M 397.364 0 L 411.524 0 L 378.369 67.529 Q 377.588 69.092 376.05 70.044 A 6.321 6.321 0 0 1 372.657 70.996 A 6.236 6.236 0 0 1 369.312 70.044 A 6.505 6.505 0 0 1 366.944 67.529 L 333.838 0 L 348.047 0 L 372.657 50.439 L 397.364 0 Z M 473.243 17.236 L 473.243 63.623 A 6.727 6.727 0 0 1 472.974 65.545 A 6.147 6.147 0 0 1 472.754 66.162 A 6.207 6.207 0 0 1 471.411 68.188 Q 470.557 69.043 469.409 69.531 A 6.211 6.211 0 0 1 467.026 70.019 A 7.077 7.077 0 0 1 466.944 70.02 L 438.233 70.02 A 23.261 23.261 0 0 1 435.258 69.82 A 29.064 29.064 0 0 1 433.228 69.482 A 23.623 23.623 0 0 1 427.979 67.749 A 26.992 26.992 0 0 1 423.279 64.95 A 29.956 29.956 0 0 1 422.974 64.722 Q 420.557 62.891 418.75 60.278 A 21.504 21.504 0 0 1 416.601 56.306 A 26.112 26.112 0 0 1 415.845 54.248 A 22.366 22.366 0 0 1 414.957 50.125 A 29.463 29.463 0 0 1 414.746 46.533 L 414.746 17.236 L 427.442 17.236 L 427.442 46.533 A 12.457 12.457 0 0 0 427.683 49.034 A 9.997 9.997 0 0 0 428.296 51.001 A 10.466 10.466 0 0 0 430.341 54.118 A 9.999 9.999 0 0 0 430.616 54.395 Q 432.08 55.811 434.058 56.567 Q 436.035 57.324 438.33 57.324 L 460.547 57.324 L 460.547 17.236 L 473.243 17.236 Z M 264.6 57.324 L 264.6 70.02 L 230.176 70.02 Q 227.539 70.02 224.414 69.092 Q 221.289 68.164 218.628 66.04 A 16.257 16.257 0 0 1 215.257 62.331 A 19.917 19.917 0 0 1 214.185 60.522 A 14.704 14.704 0 0 1 212.848 56.744 Q 212.486 55.053 212.418 53.108 A 26.126 26.126 0 0 1 212.403 52.197 L 212.403 35.01 A 17.666 17.666 0 0 1 212.59 32.494 A 21.348 21.348 0 0 1 212.818 31.201 A 19.51 19.51 0 0 1 214.057 27.345 A 21.501 21.501 0 0 1 214.112 27.222 Q 214.991 25.244 216.382 23.438 A 14.926 14.926 0 0 1 219.736 20.274 A 16.285 16.285 0 0 1 219.751 20.264 A 16.251 16.251 0 0 1 222.759 18.638 A 19.737 19.737 0 0 1 224.317 18.066 Q 226.905 17.236 230.176 17.236 L 264.6 17.236 L 264.6 29.932 L 230.176 29.932 A 7.823 7.823 0 0 0 228.737 30.056 Q 227.282 30.328 226.392 31.201 A 3.92 3.92 0 0 0 225.447 32.737 Q 225.098 33.738 225.098 35.107 L 225.098 52.197 Q 225.098 54.043 225.822 55.245 A 3.966 3.966 0 0 0 226.416 56.006 A 4.201 4.201 0 0 0 228.162 57.035 Q 228.824 57.243 229.625 57.301 A 8.897 8.897 0 0 0 230.274 57.324 L 264.6 57.324 Z" vector-effect="non-scaling-stroke"/></g></svg>